<mxfile host="app.diagrams.net" agent="Mozilla/5.0 (X11; Linux x86_64; rv:131.0) Gecko/20100101 Firefox/131.0" version="24.8.9">
  <diagram name="Page-1" id="iWJ7oBZWxvGVX4ZP1Nxp">
    <mxGraphModel dx="2187" dy="817" grid="1" gridSize="10" guides="1" tooltips="1" connect="1" arrows="1" fold="1" page="1" pageScale="1" pageWidth="850" pageHeight="1100" math="0" shadow="0">
      <root>
        <mxCell id="0" />
        <mxCell id="1" parent="0" />
        <mxCell id="Q3fFIEvIuI_P-DY4Tn3a-38" value="" style="ellipse;whiteSpace=wrap;html=1;aspect=fixed;fillColor=#99CCFF;" parent="1" vertex="1">
          <mxGeometry x="-33.637345679012356" y="1400" width="719.9975308641975" height="719.9975308641975" as="geometry" />
        </mxCell>
        <mxCell id="Q3fFIEvIuI_P-DY4Tn3a-77" value="" style="ellipse;shape=cloud;whiteSpace=wrap;html=1;fillColor=#D4E1F5;" parent="1" vertex="1">
          <mxGeometry x="62.04" y="1430" width="545" height="390" as="geometry" />
        </mxCell>
        <mxCell id="Q3fFIEvIuI_P-DY4Tn3a-53" value="" style="ellipse;whiteSpace=wrap;html=1;aspect=fixed;fillColor=#99CCFF;" parent="1" vertex="1">
          <mxGeometry x="230" y="1520" width="240" height="240" as="geometry" />
        </mxCell>
        <mxCell id="Q3fFIEvIuI_P-DY4Tn3a-2" value="Model" style="rounded=1;whiteSpace=wrap;html=1;fillColor=#FFE599;" parent="1" vertex="1">
          <mxGeometry x="100" y="80" width="120" height="60" as="geometry" />
        </mxCell>
        <mxCell id="Q3fFIEvIuI_P-DY4Tn3a-3" value="&lt;div&gt;Decoder&lt;/div&gt;" style="ellipse;whiteSpace=wrap;html=1;aspect=fixed;fillColor=#99CCFF;" parent="1" vertex="1">
          <mxGeometry x="120" y="190" width="80" height="80" as="geometry" />
        </mxCell>
        <mxCell id="Q3fFIEvIuI_P-DY4Tn3a-4" value="Sampler" style="rhombus;whiteSpace=wrap;html=1;fillColor=#FF9999;" parent="1" vertex="1">
          <mxGeometry x="220" y="140" width="80" height="80" as="geometry" />
        </mxCell>
        <mxCell id="Q3fFIEvIuI_P-DY4Tn3a-5" value="Text" style="shape=process;whiteSpace=wrap;html=1;backgroundOutline=1;fillColor=#9AC7BF;" parent="1" vertex="1">
          <mxGeometry x="370" y="120" width="120" height="60" as="geometry" />
        </mxCell>
        <mxCell id="Q3fFIEvIuI_P-DY4Tn3a-6" value="" style="ellipse;whiteSpace=wrap;html=1;aspect=fixed;fillColor=#99CCFF;" parent="1" vertex="1">
          <mxGeometry x="120" y="370" width="350" height="350" as="geometry" />
        </mxCell>
        <mxCell id="Q3fFIEvIuI_P-DY4Tn3a-7" value="&lt;b&gt;&lt;font style=&quot;font-size: 24px;&quot;&gt;Simple Decoder&lt;/font&gt;&lt;/b&gt;" style="text;html=1;align=center;verticalAlign=middle;whiteSpace=wrap;rounded=0;" parent="1" vertex="1">
          <mxGeometry x="204" y="407" width="190" height="70" as="geometry" />
        </mxCell>
        <mxCell id="Q3fFIEvIuI_P-DY4Tn3a-13" value="" style="edgeStyle=orthogonalEdgeStyle;rounded=0;orthogonalLoop=1;jettySize=auto;html=1;" parent="1" source="Q3fFIEvIuI_P-DY4Tn3a-8" target="Q3fFIEvIuI_P-DY4Tn3a-9" edge="1">
          <mxGeometry relative="1" as="geometry" />
        </mxCell>
        <mxCell id="Q3fFIEvIuI_P-DY4Tn3a-8" value="Model" style="rounded=1;whiteSpace=wrap;html=1;fillColor=#FFE599;" parent="1" vertex="1">
          <mxGeometry x="170" y="510" width="120" height="60" as="geometry" />
        </mxCell>
        <mxCell id="Q3fFIEvIuI_P-DY4Tn3a-14" value="" style="edgeStyle=orthogonalEdgeStyle;rounded=0;orthogonalLoop=1;jettySize=auto;html=1;" parent="1" source="Q3fFIEvIuI_P-DY4Tn3a-9" target="Q3fFIEvIuI_P-DY4Tn3a-11" edge="1">
          <mxGeometry relative="1" as="geometry" />
        </mxCell>
        <mxCell id="Q3fFIEvIuI_P-DY4Tn3a-9" value="Sampler" style="rhombus;whiteSpace=wrap;html=1;fillColor=#FF9999;" parent="1" vertex="1">
          <mxGeometry x="345" y="500" width="80" height="80" as="geometry" />
        </mxCell>
        <mxCell id="Q3fFIEvIuI_P-DY4Tn3a-12" value="" style="edgeStyle=orthogonalEdgeStyle;rounded=0;orthogonalLoop=1;jettySize=auto;html=1;" parent="1" source="Q3fFIEvIuI_P-DY4Tn3a-10" target="Q3fFIEvIuI_P-DY4Tn3a-8" edge="1">
          <mxGeometry relative="1" as="geometry" />
        </mxCell>
        <mxCell id="Q3fFIEvIuI_P-DY4Tn3a-10" value="Input" style="shape=process;whiteSpace=wrap;html=1;backgroundOutline=1;fillColor=#9AC7BF;" parent="1" vertex="1">
          <mxGeometry x="-50" y="510" width="120" height="60" as="geometry" />
        </mxCell>
        <mxCell id="Q3fFIEvIuI_P-DY4Tn3a-11" value="Output" style="shape=process;whiteSpace=wrap;html=1;backgroundOutline=1;fillColor=#9AC7BF;" parent="1" vertex="1">
          <mxGeometry x="520" y="510" width="120" height="60" as="geometry" />
        </mxCell>
        <mxCell id="Q3fFIEvIuI_P-DY4Tn3a-15" value="" style="ellipse;whiteSpace=wrap;html=1;aspect=fixed;fillColor=#99CCFF;" parent="1" vertex="1">
          <mxGeometry x="75" y="850" width="440" height="440" as="geometry" />
        </mxCell>
        <mxCell id="Q3fFIEvIuI_P-DY4Tn3a-16" value="&lt;b&gt;&lt;font style=&quot;font-size: 24px;&quot;&gt;Speculative Decoder&lt;/font&gt;&lt;/b&gt;" style="text;html=1;align=center;verticalAlign=middle;whiteSpace=wrap;rounded=0;" parent="1" vertex="1">
          <mxGeometry x="170" y="890" width="250" height="70" as="geometry" />
        </mxCell>
        <mxCell id="Q3fFIEvIuI_P-DY4Tn3a-17" value="" style="edgeStyle=orthogonalEdgeStyle;rounded=0;orthogonalLoop=1;jettySize=auto;html=1;" parent="1" source="Q3fFIEvIuI_P-DY4Tn3a-18" target="Q3fFIEvIuI_P-DY4Tn3a-20" edge="1">
          <mxGeometry relative="1" as="geometry" />
        </mxCell>
        <mxCell id="Q3fFIEvIuI_P-DY4Tn3a-18" value="Draft Model" style="rounded=1;whiteSpace=wrap;html=1;fillColor=#FFE599;" parent="1" vertex="1">
          <mxGeometry x="180" y="970" width="120" height="60" as="geometry" />
        </mxCell>
        <mxCell id="Q3fFIEvIuI_P-DY4Tn3a-33" style="edgeStyle=orthogonalEdgeStyle;rounded=0;orthogonalLoop=1;jettySize=auto;html=1;exitX=0.5;exitY=1;exitDx=0;exitDy=0;entryX=0;entryY=0.5;entryDx=0;entryDy=0;" parent="1" source="Q3fFIEvIuI_P-DY4Tn3a-20" target="Q3fFIEvIuI_P-DY4Tn3a-29" edge="1">
          <mxGeometry relative="1" as="geometry">
            <Array as="points">
              <mxPoint x="400" y="1064" />
              <mxPoint x="120" y="1064" />
              <mxPoint x="120" y="1140" />
            </Array>
          </mxGeometry>
        </mxCell>
        <mxCell id="Q3fFIEvIuI_P-DY4Tn3a-20" value="&lt;div&gt;Draft&amp;nbsp;&lt;/div&gt;&lt;div&gt;Sampler&lt;/div&gt;" style="rhombus;whiteSpace=wrap;html=1;fillColor=#FF9999;" parent="1" vertex="1">
          <mxGeometry x="350" y="962.5" width="100" height="75" as="geometry" />
        </mxCell>
        <mxCell id="Q3fFIEvIuI_P-DY4Tn3a-28" style="edgeStyle=orthogonalEdgeStyle;rounded=0;orthogonalLoop=1;jettySize=auto;html=1;exitX=1;exitY=0.5;exitDx=0;exitDy=0;entryX=0;entryY=0.5;entryDx=0;entryDy=0;" parent="1" source="Q3fFIEvIuI_P-DY4Tn3a-22" target="Q3fFIEvIuI_P-DY4Tn3a-18" edge="1">
          <mxGeometry relative="1" as="geometry" />
        </mxCell>
        <mxCell id="Q3fFIEvIuI_P-DY4Tn3a-37" style="edgeStyle=orthogonalEdgeStyle;rounded=0;orthogonalLoop=1;jettySize=auto;html=1;exitX=0.5;exitY=1;exitDx=0;exitDy=0;entryX=0;entryY=0.5;entryDx=0;entryDy=0;" parent="1" source="Q3fFIEvIuI_P-DY4Tn3a-22" target="Q3fFIEvIuI_P-DY4Tn3a-29" edge="1">
          <mxGeometry relative="1" as="geometry">
            <mxPoint x="130" y="1140" as="targetPoint" />
            <Array as="points">
              <mxPoint x="-40" y="1140" />
            </Array>
          </mxGeometry>
        </mxCell>
        <mxCell id="Q3fFIEvIuI_P-DY4Tn3a-22" value="Input" style="shape=process;whiteSpace=wrap;html=1;backgroundOutline=1;fillColor=#9AC7BF;" parent="1" vertex="1">
          <mxGeometry x="-100" y="970" width="120" height="60" as="geometry" />
        </mxCell>
        <mxCell id="Q3fFIEvIuI_P-DY4Tn3a-23" value="Output" style="shape=process;whiteSpace=wrap;html=1;backgroundOutline=1;fillColor=#9AC7BF;" parent="1" vertex="1">
          <mxGeometry x="590" y="1110" width="120" height="60" as="geometry" />
        </mxCell>
        <mxCell id="Q3fFIEvIuI_P-DY4Tn3a-31" value="" style="edgeStyle=orthogonalEdgeStyle;rounded=0;orthogonalLoop=1;jettySize=auto;html=1;" parent="1" source="Q3fFIEvIuI_P-DY4Tn3a-29" target="Q3fFIEvIuI_P-DY4Tn3a-30" edge="1">
          <mxGeometry relative="1" as="geometry" />
        </mxCell>
        <mxCell id="Q3fFIEvIuI_P-DY4Tn3a-29" value="Model" style="rounded=1;whiteSpace=wrap;html=1;fillColor=#FFE599;" parent="1" vertex="1">
          <mxGeometry x="140" y="1090" width="150" height="100" as="geometry" />
        </mxCell>
        <mxCell id="Q3fFIEvIuI_P-DY4Tn3a-32" style="edgeStyle=orthogonalEdgeStyle;rounded=0;orthogonalLoop=1;jettySize=auto;html=1;exitX=1;exitY=0.5;exitDx=0;exitDy=0;entryX=0;entryY=0.5;entryDx=0;entryDy=0;" parent="1" source="Q3fFIEvIuI_P-DY4Tn3a-30" target="Q3fFIEvIuI_P-DY4Tn3a-23" edge="1">
          <mxGeometry relative="1" as="geometry" />
        </mxCell>
        <mxCell id="Q3fFIEvIuI_P-DY4Tn3a-30" value="Sampler" style="rhombus;whiteSpace=wrap;html=1;fillColor=#FF9999;" parent="1" vertex="1">
          <mxGeometry x="342.5" y="1090" width="107.5" height="100" as="geometry" />
        </mxCell>
        <mxCell id="Q3fFIEvIuI_P-DY4Tn3a-39" value="&lt;b&gt;&lt;font style=&quot;font-size: 24px;&quot;&gt;Speculative Decoder&lt;/font&gt;&lt;/b&gt;" style="text;html=1;align=center;verticalAlign=middle;whiteSpace=wrap;rounded=0;" parent="1" vertex="1">
          <mxGeometry x="138.65666666666667" y="1397.0045454545455" width="409.0895061728395" height="114.54545454545455" as="geometry" />
        </mxCell>
        <mxCell id="Q3fFIEvIuI_P-DY4Tn3a-45" style="edgeStyle=orthogonalEdgeStyle;rounded=0;orthogonalLoop=1;jettySize=auto;html=1;exitX=0.5;exitY=1;exitDx=0;exitDy=0;entryX=0;entryY=0.5;entryDx=0;entryDy=0;" parent="1" source="Q3fFIEvIuI_P-DY4Tn3a-46" target="Q3fFIEvIuI_P-DY4Tn3a-49" edge="1">
          <mxGeometry relative="1" as="geometry">
            <mxPoint x="56.36234567901238" y="1874.5454545454545" as="targetPoint" />
            <Array as="points">
              <mxPoint x="-172" y="1875" />
            </Array>
          </mxGeometry>
        </mxCell>
        <mxCell id="Q3fFIEvIuI_P-DY4Tn3a-84" style="edgeStyle=orthogonalEdgeStyle;rounded=0;orthogonalLoop=1;jettySize=auto;html=1;exitX=1;exitY=0.5;exitDx=0;exitDy=0;entryX=0;entryY=0.75;entryDx=0;entryDy=0;" parent="1" source="Q3fFIEvIuI_P-DY4Tn3a-46" target="Q3fFIEvIuI_P-DY4Tn3a-56" edge="1">
          <mxGeometry relative="1" as="geometry" />
        </mxCell>
        <mxCell id="Q3fFIEvIuI_P-DY4Tn3a-86" style="edgeStyle=orthogonalEdgeStyle;rounded=0;orthogonalLoop=1;jettySize=auto;html=1;exitX=1;exitY=0.5;exitDx=0;exitDy=0;entryX=0;entryY=0.5;entryDx=0;entryDy=0;" parent="1" source="Q3fFIEvIuI_P-DY4Tn3a-46" target="Q3fFIEvIuI_P-DY4Tn3a-60" edge="1">
          <mxGeometry relative="1" as="geometry">
            <Array as="points">
              <mxPoint x="170" y="1609" />
              <mxPoint x="170" y="1678" />
            </Array>
          </mxGeometry>
        </mxCell>
        <mxCell id="Q3fFIEvIuI_P-DY4Tn3a-46" value="&lt;font style=&quot;font-size: 24px;&quot;&gt;Input&lt;/font&gt;" style="shape=process;whiteSpace=wrap;html=1;backgroundOutline=1;fillColor=#9AC7BF;" parent="1" vertex="1">
          <mxGeometry x="-270" y="1560.0036363636366" width="196.36296296296297" height="98.18181818181819" as="geometry" />
        </mxCell>
        <mxCell id="Q3fFIEvIuI_P-DY4Tn3a-47" value="&lt;font style=&quot;font-size: 24px;&quot;&gt;Output&lt;/font&gt;" style="shape=process;whiteSpace=wrap;html=1;backgroundOutline=1;fillColor=#9AC7BF;" parent="1" vertex="1">
          <mxGeometry x="769.9970370370371" y="1825.4545454545455" width="196.36296296296297" height="98.18181818181819" as="geometry" />
        </mxCell>
        <mxCell id="Q3fFIEvIuI_P-DY4Tn3a-48" value="" style="edgeStyle=orthogonalEdgeStyle;rounded=0;orthogonalLoop=1;jettySize=auto;html=1;" parent="1" source="Q3fFIEvIuI_P-DY4Tn3a-49" target="Q3fFIEvIuI_P-DY4Tn3a-51" edge="1">
          <mxGeometry relative="1" as="geometry" />
        </mxCell>
        <mxCell id="Q3fFIEvIuI_P-DY4Tn3a-49" value="&lt;font style=&quot;font-size: 24px;&quot;&gt;Model&lt;/font&gt;" style="rounded=1;whiteSpace=wrap;html=1;fillColor=#FFE599;" parent="1" vertex="1">
          <mxGeometry x="72.72592592592594" y="1792.7272727272727" width="245.4537037037037" height="163.63636363636365" as="geometry" />
        </mxCell>
        <mxCell id="Q3fFIEvIuI_P-DY4Tn3a-50" style="edgeStyle=orthogonalEdgeStyle;rounded=0;orthogonalLoop=1;jettySize=auto;html=1;exitX=1;exitY=0.5;exitDx=0;exitDy=0;entryX=0;entryY=0.5;entryDx=0;entryDy=0;" parent="1" source="Q3fFIEvIuI_P-DY4Tn3a-51" target="Q3fFIEvIuI_P-DY4Tn3a-47" edge="1">
          <mxGeometry relative="1" as="geometry" />
        </mxCell>
        <mxCell id="Q3fFIEvIuI_P-DY4Tn3a-51" value="&lt;font style=&quot;font-size: 24px;&quot;&gt;Sampler&lt;/font&gt;" style="rhombus;whiteSpace=wrap;html=1;fillColor=#FF9999;" parent="1" vertex="1">
          <mxGeometry x="404.0884259259259" y="1792.7272727272727" width="175.908487654321" height="163.63636363636365" as="geometry" />
        </mxCell>
        <mxCell id="Q3fFIEvIuI_P-DY4Tn3a-54" value="&lt;font style=&quot;font-size: 10px;&quot;&gt;&lt;b&gt;&lt;font&gt;Speculative Decoder&lt;/font&gt;&lt;/b&gt;&lt;/font&gt;" style="text;html=1;align=center;verticalAlign=middle;whiteSpace=wrap;rounded=0;" parent="1" vertex="1">
          <mxGeometry x="283.97727272727275" y="1541.8181818181818" width="142.04545454545453" height="38.18181818181817" as="geometry" />
        </mxCell>
        <mxCell id="Q3fFIEvIuI_P-DY4Tn3a-55" value="" style="edgeStyle=orthogonalEdgeStyle;rounded=0;orthogonalLoop=1;jettySize=auto;html=1;" parent="1" source="Q3fFIEvIuI_P-DY4Tn3a-56" target="Q3fFIEvIuI_P-DY4Tn3a-58" edge="1">
          <mxGeometry relative="1" as="geometry" />
        </mxCell>
        <mxCell id="Q3fFIEvIuI_P-DY4Tn3a-56" value="&lt;font style=&quot;font-size: 8px;&quot;&gt;Draft Model&lt;/font&gt;" style="rounded=1;whiteSpace=wrap;html=1;fillColor=#FFE599;" parent="1" vertex="1">
          <mxGeometry x="289.6590909090909" y="1585.4545454545455" width="68.18181818181817" height="32.72727272727273" as="geometry" />
        </mxCell>
        <mxCell id="Q3fFIEvIuI_P-DY4Tn3a-57" style="edgeStyle=orthogonalEdgeStyle;rounded=0;orthogonalLoop=1;jettySize=auto;html=1;exitX=0.5;exitY=1;exitDx=0;exitDy=0;entryX=0;entryY=0.5;entryDx=0;entryDy=0;" parent="1" source="Q3fFIEvIuI_P-DY4Tn3a-58" target="Q3fFIEvIuI_P-DY4Tn3a-60" edge="1">
          <mxGeometry relative="1" as="geometry">
            <Array as="points">
              <mxPoint x="414.6590909090909" y="1636.7272727272727" />
              <mxPoint x="255.5681818181818" y="1636.7272727272727" />
              <mxPoint x="255.5681818181818" y="1678.1818181818182" />
            </Array>
          </mxGeometry>
        </mxCell>
        <mxCell id="Q3fFIEvIuI_P-DY4Tn3a-58" value="&lt;div&gt;&lt;font style=&quot;font-size: 8px;&quot;&gt;Draft&amp;nbsp;&lt;/font&gt;&lt;/div&gt;&lt;div&gt;&lt;font style=&quot;font-size: 8px;&quot;&gt;Sampler&lt;/font&gt;&lt;/div&gt;" style="rhombus;whiteSpace=wrap;html=1;fillColor=#FF9999;" parent="1" vertex="1">
          <mxGeometry x="386.25" y="1581.3636363636363" width="56.81818181818181" height="40.90909090909091" as="geometry" />
        </mxCell>
        <mxCell id="Q3fFIEvIuI_P-DY4Tn3a-59" value="" style="edgeStyle=orthogonalEdgeStyle;rounded=0;orthogonalLoop=1;jettySize=auto;html=1;" parent="1" source="Q3fFIEvIuI_P-DY4Tn3a-60" target="Q3fFIEvIuI_P-DY4Tn3a-61" edge="1">
          <mxGeometry relative="1" as="geometry" />
        </mxCell>
        <mxCell id="Q3fFIEvIuI_P-DY4Tn3a-60" value="&lt;font style=&quot;font-size: 8px;&quot;&gt;Model&lt;/font&gt;" style="rounded=1;whiteSpace=wrap;html=1;fillColor=#FFE599;" parent="1" vertex="1">
          <mxGeometry x="266.9318181818182" y="1650.909090909091" width="85.22727272727272" height="54.54545454545455" as="geometry" />
        </mxCell>
        <mxCell id="Q3fFIEvIuI_P-DY4Tn3a-85" style="edgeStyle=orthogonalEdgeStyle;rounded=0;orthogonalLoop=1;jettySize=auto;html=1;exitX=1;exitY=0.5;exitDx=0;exitDy=0;entryX=0;entryY=0.5;entryDx=0;entryDy=0;" parent="1" source="Q3fFIEvIuI_P-DY4Tn3a-61" target="Q3fFIEvIuI_P-DY4Tn3a-49" edge="1">
          <mxGeometry relative="1" as="geometry">
            <Array as="points">
              <mxPoint x="490" y="1678" />
              <mxPoint x="490" y="1780" />
              <mxPoint x="53" y="1780" />
              <mxPoint x="53" y="1875" />
            </Array>
          </mxGeometry>
        </mxCell>
        <mxCell id="Q3fFIEvIuI_P-DY4Tn3a-61" value="&lt;font style=&quot;font-size: 8px;&quot;&gt;Sampler&lt;/font&gt;" style="rhombus;whiteSpace=wrap;html=1;fillColor=#FF9999;" parent="1" vertex="1">
          <mxGeometry x="381.9886363636364" y="1650.909090909091" width="61.079545454545446" height="54.54545454545455" as="geometry" />
        </mxCell>
      </root>
    </mxGraphModel>
  </diagram>
</mxfile>
